<?xml version="1.0" encoding="utf-8"?>
<!-- Svg Vector Icons : http://www.onlinewebfonts.com/icon -->
<!DOCTYPE svg PUBLIC "-//W3C//DTD SVG 1.1//EN" "http://www.w3.org/Graphics/SVG/1.1/DTD/svg11.dtd">
<svg version="1.1" xmlns="http://www.w3.org/2000/svg" xmlns:xlink="http://www.w3.org/1999/xlink" x="0px" y="0px" viewBox="0 0 256 256" enable-background="new 0 0 256 256" xml:space="preserve">
<metadata> Svg Vector Icons : http://www.onlinewebfonts.com/icon </metadata>
<g><g><g><g><path fill="#000000" d="M233.6,93.9C227.9,33.9,195.3,10,161.9,10c-33.9,0-54.9,19.6-63,44.4c-8.1,24.8,4.2,54.6,19.3,57.8c11,2.4,3.2,36.1-55.5,57.9S25.4,246,25.4,246s11.9-23.2,38.7-23.9c26.8-0.7,81.5,8.1,119.4-18.9C221.4,176.3,238.5,144.6,233.6,93.9z M160.8,105.2c-4.7,25-32.8,54.5-69.6,66.9c35.4-18.9,47.5-37.2,51.2-58.3c4.3-24-31.4-36.3-10.3-52.3C147.8,49.6,164.6,85.2,160.8,105.2z"/></g></g><g></g><g></g><g></g><g></g><g></g><g></g><g></g><g></g><g></g><g></g><g></g><g></g><g></g><g></g><g></g></g></g>
</svg>