<?xml version="1.0" encoding="utf-8"?>
<!-- Svg Vector Icons : http://www.onlinewebfonts.com/icon -->
<!DOCTYPE svg PUBLIC "-//W3C//DTD SVG 1.1//EN" "http://www.w3.org/Graphics/SVG/1.1/DTD/svg11.dtd">
<svg version="1.1" xmlns="http://www.w3.org/2000/svg" xmlns:xlink="http://www.w3.org/1999/xlink" x="0px" y="0px" viewBox="0 0 256 256" enable-background="new 0 0 256 256" xml:space="preserve">
<metadata> Svg Vector Icons : http://www.onlinewebfonts.com/icon </metadata>
<g><g><g><path fill="#000000" d="M54.6,10.8c-0.9,0.7-1.2,2-2.4,11.5C46.4,68,41.4,93.4,33.4,117.8c-4.7,14.6-5.5,18.1-5.3,24.1c0.1,4.4,0.2,4.7,2.6,9.5c2,3.9,3,5.4,5.2,7.4c3.2,3,6.3,4.6,9.3,4.9l2.2,0.2l2.1,4.4c4,8.1,9.9,12.7,18.7,14.4l4.4,0.8l0.8,2.4c3.5,9.9,11.2,16.3,21.6,17.9l3.4,0.5l0.6,3.7c1.9,12.2,8.4,20.1,18.5,22.5c4.7,1.1,14.4,0.7,19.7-0.9c2.2-0.7,4.2-1.2,4.5-1.2c0.3,0,1.1,1,1.8,2.2c1.8,3.2,5.9,7.3,9.2,9.4c5.3,3.3,11.5,5.2,19.6,5.9c4.5,0.4,8-0.5,15.7-3.7c9.4-4,17-9.1,23.6-15.9c8.1-8.5,13-17.9,15.1-29.7c0.7-4.2,0.8-5.6,0.3-14.4c-0.9-15.9-2.4-26.1-5.3-35.5l-1.5-4.8l0.6-6.6c5-58.3,6.2-75.9,6.8-102.4c0.3-13.4,0.3-13.7-2.5-13.7c-3,0-3.1,0.8-3.8,23.9c-0.6,20.5-1.8,38.5-5.7,82.8l-1.4,16.8l1.4,4.3c1.9,5.8,2.6,9.2,3.8,17c1.3,9,2,20.3,1.8,26.9c-0.5,12.2-5.8,23.4-15.3,32.6c-3.5,3.3-11.5,9.4-12.5,9.4c-0.1,0,0.1-1.6,0.7-3.6c0.5-2,1-6.1,1.2-9.2c0.4-9-1.4-14.7-6.5-20.1c-2.5-2.6-7-5.2-11.3-6.4c-2-0.6-3.9-0.7-7-0.6c-3.7,0.1-4.7,0.4-7.3,1.7c-6.8,3.3-12.5,11.1-16.2,22.2c-1.1,3.1-1.2,3.2-1.4,1.9c-1.5-6.7,0.6-15.2,10-40.9c4-10.9,4.5-12.6,4.9-16.8c0.9-9.4-1-21.5-5.7-35.8c-2-6-2.6-6.8-5-6.6c-0.7,0.1-1.5,0.6-1.9,1.3c-0.6,1.1-0.5,1.7,1.3,7c4,11.8,5.4,20.2,5.4,29.7l0,7.2l-3.5,9.3c-10.3,27.5-12.5,36.2-11.3,46.1l0.4,3.3l-1.6,0.5l-1.6,0.5l-0.3-4c-0.3-4.9-1.3-8.1-3.3-11c-3.9-5.8-12.7-7.4-18.1-3.3c-2.4,1.8-4.7,6.2-5.6,10.5l-0.6,3l-1.4-3c-1.9-3.8-2.9-7.8-2.9-11.2c0-2.2,0.5-3.8,3-9.6c5.5-12.8,6.4-15.9,9.5-33.6c1-5.5,2-12.8,2.9-21.5c0.4-4.4,0.4-5.2-0.2-6.1c-0.9-1.3-3.5-1.6-4.5-0.5c-0.4,0.4-1.1,4.8-1.7,10.6c-1,8.8-2.5,18.5-4.6,29.4c-0.4,2-1.5,6-2.6,8.8c-1,2.8-2,5.5-2.1,5.9c-0.4,1.3-0.9,1-1.2-0.9c-0.4-2.4-2.6-5.8-4.7-7c-2-1.3-6.2-1.8-8.9-1c-3.2,0.8-7.5,4.6-8.7,7.6c-0.3,0.8-1-0.3-1.9-3.3c-0.8-2.4-0.7-2.6,0.4-7.3c1.9-7.5,2.9-12.2,5.9-25.8c1.8-8.4,4-16.6,6.3-24.2c4.1-13.2,4.3-14.2,3.2-15.4c-1.1-1.2-3.1-1.2-4.1-0.1c-0.7,0.8-4,10.6-7.5,22.9c-0.8,2.9-2.7,11.1-4.2,18c-1.4,7-2.8,12.7-3,12.7c-0.2,0-0.6-0.7-0.9-1.4c-1.4-3.4-5.6-5.4-10.3-4.9c-3.9,0.4-6.2,1.5-8.5,4l-2,2.3l-0.7-1.7c-0.7-2.2-0.7-9.8,0.1-15.1c1-6.5,2.2-11.3,5.8-22.7c1.9-6,5.2-16.8,7.4-24.1c4.1-13.6,4.2-14.3,2.4-15.5c-0.9-0.7-2.9-0.4-3.6,0.4c-0.4,0.5-2.2,6-4,12.2c-1.9,6.2-5.1,16.6-7.1,23c-3.2,10.1-4.6,15-5.7,19.8c-0.2,1.1-0.4,1.2-3.6,1.2c-3.9,0-5.6,0.7-8.6,3.6l-1.9,1.8l-0.6-2.1c-0.3-1.2-0.5-2.7-0.5-3.4c0-3.3,1.7-10.3,4.4-18.7c7.1-21.6,11.3-40.1,16-71.1c1.9-12.6,5.2-37,5.2-38.9c0-1.3-1.5-2.9-2.7-2.9C56,10,55.1,10.4,54.6,10.8z M47.3,152.3c-0.1,2.6-0.3,5-0.4,5.3c-0.4,1.2-5.2-0.7-7.1-2.8c-1.3-1.4-1.1-3.2,0.5-5.2c1.2-1.6,2.4-2,5.1-2l2.2,0L47.3,152.3z M69.1,164.8c1.7,1.3,2.3,3.7,2.1,8.3l-0.1,4l-1.6-0.1c-2.5-0.3-6.2-1.8-8.6-3.7c-2.2-1.6-2.2-1.7-1.9-3.8c0.5-3.9,2.6-5.6,6.6-5.6C67.3,163.9,68.3,164.2,69.1,164.8z M95.6,185.3c1.7,0.9,2.7,4,2.7,8.6c0,4.2,0,4.3-1,4.3c-2.7,0-8-2.1-11.2-4.2c-1.1-0.8-1.2-1.1-0.8-2.3c0.7-2.4,2.5-5.1,4-6C90.7,184.7,94,184.5,95.6,185.3z M174.5,199.2c13.6,2.6,18.6,15.3,13.2,32.9c-0.7,2.5-1.6,4.1-2.3,4.7c-0.6,0.5-2.9,1.4-5.1,2.1c-3.6,1.2-4.5,1.3-8.3,1c-7.8-0.5-14.4-2.9-18.9-6.7c-2.9-2.5-3.2-3.5-2.6-7.4c2-11.2,8.3-22.3,14.5-25.3C168.8,198.8,170.8,198.5,174.5,199.2z M126,209.9c3.5,1.6,5.3,5.5,5.3,11.7v3.6l-2.1,0.3c-3.4,0.5-10.5,0-12.7-1l-2-0.8l0.3-3.7c0.4-5.4,2.3-9.1,5.2-10.4C121.8,208.8,123.7,208.8,126,209.9z"/></g></g></g>
</svg>